<svg width="552" height="117" viewBox="0 0 552 117" fill="none" xmlns="http://www.w3.org/2000/svg">
<path d="M164.5 94.65L169.9 93.3V35.7L164.5 34.35V33H188.8C197.92 33 204.61 34.47 208.87 37.41C213.19 40.29 215.35 44.07 215.35 48.75C215.35 51.99 214.42 54.6 212.56 56.58C210.7 58.56 208.33 60.03 205.45 60.99C202.39 62.07 199.09 62.64 195.55 62.7V63.15C199.93 63.33 203.74 63.99 206.98 65.13C210.28 66.21 213.01 67.89 215.17 70.17C217.39 72.45 218.5 75.36 218.5 78.9C218.5 84.24 216.31 88.44 211.93 91.5C207.55 94.5 200.44 96 190.6 96H164.5V94.65ZM188.8 61.8C190.78 61.8 192.61 61.26 194.29 60.18C196.03 59.04 197.41 57.48 198.43 55.5C199.51 53.46 200.05 51.21 200.05 48.75C200.05 46.11 199.51 43.77 198.43 41.73C197.41 39.69 196.03 38.1 194.29 36.96C192.61 35.82 190.78 35.25 188.8 35.25H184.75V61.8H188.8ZM190.6 93.75C194.32 93.75 197.35 92.43 199.69 89.79C202.03 87.15 203.2 83.52 203.2 78.9C203.2 74.28 202.03 70.65 199.69 68.01C197.35 65.37 194.32 64.05 190.6 64.05H184.75V93.75H190.6ZM248.622 97.35C241.182 97.35 235.332 95.25 231.072 91.05C226.872 86.79 224.772 80.94 224.772 73.5C224.772 66.06 226.872 60.24 231.072 56.04C235.332 51.78 241.182 49.65 248.622 49.65C256.062 49.65 261.882 51.78 266.082 56.04C270.342 60.24 272.472 66.06 272.472 73.5C272.472 80.94 270.342 86.79 266.082 91.05C261.882 95.25 256.062 97.35 248.622 97.35ZM248.622 95.55C251.022 95.55 253.032 93.87 254.652 90.51C256.332 87.15 257.172 81.48 257.172 73.5C257.172 65.52 256.332 59.85 254.652 56.49C253.032 53.13 251.022 51.45 248.622 51.45C246.222 51.45 244.182 53.13 242.502 56.49C240.882 59.85 240.072 65.52 240.072 73.5C240.072 81.48 240.882 87.15 242.502 90.51C244.182 93.87 246.222 95.55 248.622 95.55ZM303.554 97.35C296.114 97.35 290.264 95.25 286.004 91.05C281.804 86.79 279.704 80.94 279.704 73.5C279.704 66.06 281.804 60.24 286.004 56.04C290.264 51.78 296.114 49.65 303.554 49.65C310.994 49.65 316.814 51.78 321.014 56.04C325.274 60.24 327.404 66.06 327.404 73.5C327.404 80.94 325.274 86.79 321.014 91.05C316.814 95.25 310.994 97.35 303.554 97.35ZM303.554 95.55C305.954 95.55 307.964 93.87 309.584 90.51C311.264 87.15 312.104 81.48 312.104 73.5C312.104 65.52 311.264 59.85 309.584 56.49C307.964 53.13 305.954 51.45 303.554 51.45C301.154 51.45 299.114 53.13 297.434 56.49C295.814 59.85 295.004 65.52 295.004 73.5C295.004 81.48 295.814 87.15 297.434 90.51C299.114 93.87 301.154 95.55 303.554 95.55ZM334.635 94.65L340.035 93.3V35.7L334.635 34.35V33H346.335C351.735 33 354.435 35.7 354.435 41.1V72.6L371.085 55.05L364.335 52.35V51H381.435V52.35L374.235 55.05L363.885 65.85L381.435 93.3L385.935 94.65V96H374.235C371.355 96 369.015 95.37 367.215 94.11C365.415 92.85 363.705 90.93 362.085 88.35L354.435 76.2V93.3L359.835 94.65V96H334.635V94.65ZM402.55 94.65L407.95 93.3V72.6L389.5 35.7L385 34.35V33H396.25C399.37 33 401.86 33.66 403.72 34.98C405.64 36.3 407.2 38.19 408.4 40.65L421.72 67.2L435.4 37.05L428.65 34.35V33H445.75V34.35L438.55 37.05L422.8 71.7V93.3L428.2 94.65V96H402.55V94.65ZM466.942 97.35C459.502 97.35 453.652 95.25 449.392 91.05C445.192 86.79 443.092 80.94 443.092 73.5C443.092 66.06 445.192 60.24 449.392 56.04C453.652 51.78 459.502 49.65 466.942 49.65C474.382 49.65 480.202 51.78 484.402 56.04C488.662 60.24 490.792 66.06 490.792 73.5C490.792 80.94 488.662 86.79 484.402 91.05C480.202 95.25 474.382 97.35 466.942 97.35ZM466.942 95.55C469.342 95.55 471.352 93.87 472.972 90.51C474.652 87.15 475.492 81.48 475.492 73.5C475.492 65.52 474.652 59.85 472.972 56.49C471.352 53.13 469.342 51.45 466.942 51.45C464.542 51.45 462.502 53.13 460.822 56.49C459.202 59.85 458.392 65.52 458.392 73.5C458.392 81.48 459.202 87.15 460.822 90.51C462.502 93.87 464.542 95.55 466.942 95.55ZM519.624 97.35C516.264 97.35 513.234 96.66 510.534 95.28C507.894 93.84 505.824 91.98 504.324 89.7C502.824 87.42 502.074 85.02 502.074 82.5V53.7L496.674 52.35V51H508.374C513.774 51 516.474 53.7 516.474 59.1V82.5C516.474 86.28 517.134 89.19 518.454 91.23C519.834 93.21 521.424 94.2 523.224 94.2C525.444 94.2 527.454 93 529.254 90.6C529.914 89.7 530.604 88.5 531.324 87V53.7L525.924 52.35V51H551.124V52.35L545.724 53.7V96.45H544.824C540.444 96.45 537.114 95.25 534.834 92.85C533.814 91.77 533.094 90.57 532.674 89.25C531.834 90.75 530.844 92.1 529.704 93.3C527.004 96 523.644 97.35 519.624 97.35Z" fill="#558F6B"/>
<path d="M141.206 0.0141826C126.934 0.826388 98.5694 3.78271 81.0587 14.532C79.8503 15.2737 79.1654 16.5926 79.1654 17.9715V113C79.1654 116.016 82.4546 117.922 85.228 116.523C103.244 107.429 129.299 104.948 142.182 104.269C146.581 104.037 150 100.501 150 96.2619V8.03178C150.003 3.40664 146.003 -0.257423 141.206 0.0141826ZM68.9413 14.532C51.4332 3.78271 23.0681 0.829 8.79703 0.0141826C4.00007 -0.257423 0 3.40664 0 8.03178V96.2645C0 100.506 3.41933 104.042 7.81784 104.272C20.7061 104.951 46.7743 107.434 64.7902 116.533C67.5559 117.93 70.8346 116.026 70.8346 113.018V17.9245C70.8346 16.543 70.1523 15.2763 68.9413 14.532Z" fill="#558F6B"/>
</svg>
