
<svg width="172" height="124" viewBox="0 0 172 124" fill="none" xmlns="http://www.w3.org/2000/svg">
<path d="M133.551 0.0104248C123.085 0.607431 102.284 2.78046 89.443 10.6817C88.5569 11.2268 88.0546 12.1963 88.0546 13.2098V83.0595C88.0546 85.2767 90.4667 86.678 92.5006 85.6491C105.712 78.965 124.819 77.1413 134.267 76.6422C137.492 76.4713 140 73.8722 140 70.7566V5.9037C140.002 2.50403 137.069 -0.189217 133.551 0.0104248ZM80.557 10.6817C67.7177 2.78046 46.9166 0.60935 36.4512 0.0104248C32.9334 -0.189217 30 2.50403 30 5.9037V70.7585C30 73.876 32.5075 76.4752 35.7331 76.6441C45.1845 77.1432 64.3011 78.9688 77.5128 85.6568C79.541 86.6838 81.9453 85.2844 81.9453 83.073V13.1753C81.9453 12.1598 81.445 11.2288 80.557 10.6817Z" fill="#558F6B"/>
<path d="M2.98023e-08 122.4L2.4 121.8V96.2L2.98023e-08 95.6V95H10.8C14.8533 95 17.8267 95.6533 19.72 96.96C21.64 98.24 22.6 99.92 22.6 102C22.6 103.44 22.1867 104.6 21.36 105.48C20.5333 106.36 19.48 107.013 18.2 107.44C16.84 107.92 15.3733 108.173 13.8 108.2V108.4C15.7467 108.48 17.44 108.773 18.88 109.28C20.3467 109.76 21.56 110.507 22.52 111.52C23.5067 112.533 24 113.827 24 115.4C24 117.773 23.0267 119.64 21.08 121C19.1333 122.333 15.9733 123 11.6 123H2.98023e-08V122.4ZM10.8 107.8C11.68 107.8 12.4933 107.56 13.24 107.08C14.0133 106.573 14.6267 105.88 15.08 105C15.56 104.093 15.8 103.093 15.8 102C15.8 100.827 15.56 99.7867 15.08 98.88C14.6267 97.9733 14.0133 97.2667 13.24 96.76C12.4933 96.2533 11.68 96 10.8 96H9V107.8H10.8ZM11.6 122C13.2533 122 14.6 121.413 15.64 120.24C16.68 119.067 17.2 117.453 17.2 115.4C17.2 113.347 16.68 111.733 15.64 110.56C14.6 109.387 13.2533 108.8 11.6 108.8H9V122H11.6ZM37.3875 123.6C34.0808 123.6 31.4808 122.667 29.5875 120.8C27.7208 118.907 26.7875 116.307 26.7875 113C26.7875 109.693 27.7208 107.107 29.5875 105.24C31.4808 103.347 34.0808 102.4 37.3875 102.4C40.6942 102.4 43.2808 103.347 45.1475 105.24C47.0408 107.107 47.9875 109.693 47.9875 113C47.9875 116.307 47.0408 118.907 45.1475 120.8C43.2808 122.667 40.6942 123.6 37.3875 123.6ZM37.3875 122.8C38.4542 122.8 39.3475 122.053 40.0675 120.56C40.8142 119.067 41.1875 116.547 41.1875 113C41.1875 109.453 40.8142 106.933 40.0675 105.44C39.3475 103.947 38.4542 103.2 37.3875 103.2C36.3208 103.2 35.4142 103.947 34.6675 105.44C33.9475 106.933 33.5875 109.453 33.5875 113C33.5875 116.547 33.9475 119.067 34.6675 120.56C35.4142 122.053 36.3208 122.8 37.3875 122.8ZM61.8016 123.6C58.4949 123.6 55.8949 122.667 54.0016 120.8C52.1349 118.907 51.2016 116.307 51.2016 113C51.2016 109.693 52.1349 107.107 54.0016 105.24C55.8949 103.347 58.4949 102.4 61.8016 102.4C65.1082 102.4 67.6949 103.347 69.5616 105.24C71.4549 107.107 72.4016 109.693 72.4016 113C72.4016 116.307 71.4549 118.907 69.5616 120.8C67.6949 122.667 65.1082 123.6 61.8016 123.6ZM61.8016 122.8C62.8682 122.8 63.7616 122.053 64.4816 120.56C65.2282 119.067 65.6016 116.547 65.6016 113C65.6016 109.453 65.2282 106.933 64.4816 105.44C63.7616 103.947 62.8682 103.2 61.8016 103.2C60.7349 103.2 59.8282 103.947 59.0816 105.44C58.3616 106.933 58.0016 109.453 58.0016 113C58.0016 116.547 58.3616 119.067 59.0816 120.56C59.8282 122.053 60.7349 122.8 61.8016 122.8ZM75.6156 122.4L78.0156 121.8V96.2L75.6156 95.6V95H80.8156C83.2156 95 84.4156 96.2 84.4156 98.6V112.6L91.8156 104.8L88.8156 103.6V103H96.4156V103.6L93.2156 104.8L88.6156 109.6L96.4156 121.8L98.4156 122.4V123H93.2156C91.9356 123 90.8956 122.72 90.0956 122.16C89.2956 121.6 88.5356 120.747 87.8156 119.6L84.4156 114.2V121.8L86.8156 122.4V123H75.6156V122.4ZM105.8 122.4L108.2 121.8V112.6L100 96.2L98 95.6V95H103C104.387 95 105.493 95.2933 106.32 95.88C107.173 96.4667 107.867 97.3067 108.4 98.4L114.32 110.2L120.4 96.8L117.4 95.6V95H125V95.6L121.8 96.8L114.8 112.2V121.8L117.2 122.4V123H105.8V122.4ZM134.419 123.6C131.112 123.6 128.512 122.667 126.619 120.8C124.752 118.907 123.819 116.307 123.819 113C123.819 109.693 124.752 107.107 126.619 105.24C128.512 103.347 131.112 102.4 134.419 102.4C137.725 102.4 140.312 103.347 142.179 105.24C144.072 107.107 145.019 109.693 145.019 113C145.019 116.307 144.072 118.907 142.179 120.8C140.312 122.667 137.725 123.6 134.419 123.6ZM134.419 122.8C135.485 122.8 136.379 122.053 137.099 120.56C137.845 119.067 138.219 116.547 138.219 113C138.219 109.453 137.845 106.933 137.099 105.44C136.379 103.947 135.485 103.2 134.419 103.2C133.352 103.2 132.445 103.947 131.699 105.44C130.979 106.933 130.619 109.453 130.619 113C130.619 116.547 130.979 119.067 131.699 120.56C132.445 122.053 133.352 122.8 134.419 122.8ZM157.833 123.6C156.339 123.6 154.993 123.293 153.793 122.68C152.619 122.04 151.699 121.213 151.033 120.2C150.366 119.187 150.033 118.12 150.033 117V104.2L147.633 103.6V103H152.833C155.233 103 156.433 104.2 156.433 106.6V117C156.433 118.68 156.726 119.973 157.313 120.88C157.926 121.76 158.633 122.2 159.433 122.2C160.419 122.2 161.313 121.667 162.113 120.6C162.406 120.2 162.713 119.667 163.033 119V104.2L160.633 103.6V103H171.833V103.6L169.433 104.2V123.2H169.033C167.086 123.2 165.606 122.667 164.593 121.6C164.139 121.12 163.819 120.587 163.633 120C163.259 120.667 162.819 121.267 162.313 121.8C161.113 123 159.619 123.6 157.833 123.6Z" fill="#558F6B"/>
</svg>
