<svg width="30" height="30" viewBox="0 0 30 30" fill="none" xmlns="http://www.w3.org/2000/svg">
<path d="M25 15V22.25C25 24.1356 25 25.0784 24.4142 25.6642C23.8284 26.25 22.8856 26.25 21 26.25H8.125C8.00894 26.25 7.95091 26.25 7.90184 26.2484C6.322 26.1967 5.05332 24.928 5.00161 23.3482C5 23.2991 5 23.2411 5 23.125V23.125C5 23.0089 5 22.9509 5.00161 22.9018C5.05332 21.322 6.322 20.0533 7.90184 20.0016C7.95091 20 8.00894 20 8.125 20H21C22.8856 20 23.8284 20 24.4142 19.4142C25 18.8284 25 17.8856 25 16V7.75C25 5.86438 25 4.92157 24.4142 4.33579C23.8284 3.75 22.8856 3.75 21 3.75H9C7.11438 3.75 6.17157 3.75 5.58579 4.33579C5 4.92157 5 5.86438 5 7.75V23.125" stroke="#558F6B"/>
<path d="M11.25 12.5L13.0429 14.2929C13.4334 14.6834 14.0666 14.6834 14.4571 14.2929L18.75 10" stroke="#558F6B" stroke-linecap="round"/>
</svg>
